<?xml version="1.0" encoding="UTF-8"?>
<!DOCTYPE svg PUBLIC "-//W3C//DTD SVG 1.1//EN" "http://www.w3.org/Graphics/SVG/1.1/DTD/svg11.dtd">
<!-- Creator: CorelDRAW -->
<svg xmlns="http://www.w3.org/2000/svg" xml:space="preserve" width="3in" height="3in" version="1.1" shape-rendering="geometricPrecision" text-rendering="geometricPrecision" image-rendering="optimizeQuality" fill-rule="evenodd" clip-rule="evenodd"
viewBox="0 0 3000 3000"
 xmlns:xlink="http://www.w3.org/1999/xlink"
 xmlns:xodm="http://www.corel.com/coreldraw/odm/2003">
 <g id="Layer_x0020_1">
  <metadata id="CorelCorpID_0Corel-Layer"/>
  <path fill="#0A0A0A" d="M1308.39 1441.62c11.99,-21.37 844.34,-851.62 927.3,-930.58 29.02,-27.62 52.68,-64.99 65.88,-106.01 63.85,-198.49 -108.8,-379.46 -303.76,-334.48 -98.54,22.74 -143.57,81.9 -197.82,135.74l-850.87 843.3c-59.94,60.02 -117.68,119.07 -169.69,170.13 -60.96,59.84 -113.62,118.28 -111.39,227.06 1.24,60.09 34.24,141.37 71.01,178.76l106.18 102.86c7.14,7.55 11.78,15.43 19.13,22.63 8.39,8.22 15,10.85 23.04,18.93l41.22 42.36c8.41,8.33 12.62,14.77 22.73,24.41 32.94,31.41 49.42,48.13 83.15,84.17l763.69 763.18c57.66,60.64 111.91,117.09 200.02,139.5 237.8,60.48 431.18,-236.02 238.43,-441.98 -83.81,-89.55 -171.36,-172.14 -255.49,-256.98l-503.93 -510.45c-29.41,-29.72 -57.17,-55.43 -84.13,-83.17 -24.24,-24.94 -67.57,-63.54 -84.69,-89.37zm767.88 1195.89c34.41,-12.9 60,-42.94 52.07,-91.51 -6.14,-37.58 -42.78,-66.24 -61,-83.95l-443.62 -440.2c-96.33,-98.35 -200.28,-194.04 -297.47,-293.54 -45.85,-46.94 -93.72,-95.06 -147.57,-145.05l-72.8 -73.68c-90.61,-94.97 33.54,-166.54 123.17,-258.59l812.91 -813.32c20.37,-21.6 57.69,-52.57 69.96,-76.39 43.85,-85.08 -57.67,-161.46 -137.16,-79.7 -98.05,100.85 -193.37,191.96 -292.87,292.77 -98.84,100.12 -197.06,195.21 -295.73,295.17l-514 516.17c-31.68,41.83 -39.85,58.39 -3.2,99.25 44.1,49.15 98.94,99.98 146.17,146.8l959.36 959.65c21.35,21.18 53.76,64.11 101.77,46.12z"/>
 </g>
</svg>
